<?xml version="1.0" encoding="utf-8"?>
<!-- Generator: Adobe Illustrator 17.1.0, SVG Export Plug-In . SVG Version: 6.00 Build 0)  -->
<!DOCTYPE svg PUBLIC "-//W3C//DTD SVG 1.1//EN" "http://www.w3.org/Graphics/SVG/1.1/DTD/svg11.dtd">
<svg version="1.1" id="Layer_1" xmlns="http://www.w3.org/2000/svg" xmlns:xlink="http://www.w3.org/1999/xlink" x="0px" y="0px"
	 width="381px" height="787px" viewBox="0 0 381 787" enable-background="new 0 0 381 787" xml:space="preserve">
<g>
	<g>
		<path fill="#0E34D6" d="M356,676.9c0,1.2-0.9,2.1-2.1,2.1H30.1c-1.2,0-2.1-0.9-2.1-2.1V106.1c0-1.2,0.9-2.1,2.1-2.1h323.8
			c1.2,0,2.1,0.9,2.1,2.1V676.9z M32,675h320V108H32V675z"/>
	</g>
	<g>
		<path fill="#0E34D6" d="M193.7,763.2c-19.3,0-35.1-15.7-35.1-35.1c0-19.3,15.7-35.1,35.1-35.1c19.3,0,35.1,15.7,35.1,35.1
			C228.8,747.5,213,763.2,193.7,763.2z M193.7,698c-16.6,0-30.1,13.5-30.1,30.1c0,16.6,13.5,30.1,30.1,30.1
			c16.6,0,30.1-13.5,30.1-30.1C223.8,711.5,210.3,698,193.7,698z"/>
	</g>
	<g>
		<path fill="#0E34D6" d="M193.4,47.7c-4.8,0-8.8-3.9-8.8-8.8s3.9-8.8,8.8-8.8c4.8,0,8.8,3.9,8.8,8.8S198.3,47.7,193.4,47.7z
			 M193.4,35.1c-2.1,0-3.9,1.7-3.9,3.9c0,2.1,1.7,3.9,3.9,3.9c2.1,0,3.9-1.7,3.9-3.9C197.3,36.8,195.5,35.1,193.4,35.1z"/>
	</g>
	<g>
		<path fill="#0E34D6" d="M219.7,82h-52.6c-6,0-10.9-4.7-10.9-10.5c0-5.8,4.9-10.5,10.9-10.5h52.6c6,0,10.9,4.7,10.9,10.5
			C230.6,77.3,225.7,82,219.7,82z M167.1,65c-3.3,0-6,3.4-6,6.5s2.7,6.5,6,6.5h52.6c3.3,0,6-3.4,6-6.5s-2.7-6.5-6-6.5H167.1z"/>
	</g>
	<path fill="#0E34D6" d="M326.4,6h-5.3c0-2-1.6-4-3.5-4h-57.6c-1.9,0-3.5,2-3.5,4H60.4C30.4,6,4,27.6,4,57.6V74c-2,0-3,1.3-3,2.8
		v32.3c0,1.5,1,2.8,3,2.8v13.5c-2,0.5-3,2.1-3,4v21.1c0,1.9,1,3.5,3,4V190c-2,0.5-3,2.1-3,4v21.1c0,1.9,1,3.5,3,4v508.6
		c0,30,26.4,57.2,56.4,57.2h266c30,0,51.6-27.2,51.6-57.2V57.6C378,27.6,356.4,6,326.4,6z M373,727.8c0,27.3-19.3,52.2-46.6,52.2
		h-266C33.1,780,8,755.1,8,727.8V216.5c0-1.6,0-2.8-2-2.8v-18.2c1,0,4.5-0.5,4.8-0.5H8v-43.1c0-1.6,0-2.8-2-2.8v-18.2
		c1,0,4.5,1.1,4.8,0.1H8v-21.9c0-2.1,0-2.4-2-2.4V79c1,0,4.5,2,4.8,1H8v-3.1V57.6C8,30.3,33.1,10,60.4,10H257V7.7
		c3,0,5.5,1.3,5.5-0.7h52.3c0,2-0.8,0.7,0.2,0.7V10h4.7h6.7c27.3,0,46.6,20.3,46.6,47.6V727.8z"/>
</g>
</svg>
