<?xml version="1.0" encoding="utf-8"?>
<!-- Generator: Adobe Illustrator 17.1.0, SVG Export Plug-In . SVG Version: 6.00 Build 0)  -->
<!DOCTYPE svg PUBLIC "-//W3C//DTD SVG 1.1//EN" "http://www.w3.org/Graphics/SVG/1.1/DTD/svg11.dtd">
<svg version="1.1" id="レイヤー_1" xmlns="http://www.w3.org/2000/svg" xmlns:xlink="http://www.w3.org/1999/xlink" x="0px"
	 y="0px" width="70px" height="360px" viewBox="0 0 70 360" enable-background="new 0 0 70 360" xml:space="preserve">
<path fill-rule="evenodd" clip-rule="evenodd" fill="none" stroke="#0E34D6" stroke-width="2" stroke-miterlimit="10" d="M0.5,0h70
	v360h-70V0z"/>
<g>
	<g>
		<path fill="#0E34D6" d="M34.5,45.2h4.1V30.4h5.3v-3.6H29.2v3.6h5.3V45.2z M32.8,68.8H40l1.6,3.9h4.6l-8-18.4h-3.4l-8,18.4h4.5
			L32.8,68.8z M36.4,59.7l2.3,5.7h-4.5L36.4,59.7z M43.8,81.9H29.2v3.6h5.3v14.8h4.1V85.5h5.3V81.9z M42.8,113.2v-3.7H30.3v18.4h13
			v-3.7h-8.9v-3.7h8v-3.7h-8v-3.4H42.8z M27.8,155.4h4.1v-13.1h0.1l8,13.1h5.3V137h-4.1v12.8h-0.1L33.3,137h-5.5V155.4z M34.8,164.6
			l-8,18.4h4.5l1.5-3.9H40l1.6,3.9h4.6l-8-18.4H34.8z M34.1,175.6l2.2-5.7l2.3,5.7H34.1z M33,197.1c0.5-0.5,1.1-0.9,1.8-1.2
			c0.7-0.3,1.5-0.4,2.4-0.4c1,0,1.9,0.1,2.6,0.4c0.7,0.3,1.3,0.7,1.9,1.3l2.9-3.1c-0.9-0.9-2-1.5-3.3-1.8c-1.2-0.4-2.6-0.5-4.1-0.5
			c-1.4,0-2.8,0.2-4,0.7c-1.2,0.5-2.3,1.1-3.1,1.9c-0.9,0.8-1.6,1.9-2.1,3.1c-0.5,1.2-0.7,2.5-0.7,4c0,1.5,0.2,2.8,0.7,4
			s1.2,2.2,2.1,3.1c0.9,0.8,1.9,1.5,3.1,1.9c1.2,0.5,2.5,0.7,4,0.7c1.4,0,2.7-0.1,4-0.4c1.3-0.3,2.5-0.7,3.7-1.4v-9.6h-7.2v3.7H41v3
			c-0.4,0.2-0.9,0.4-1.5,0.6c-0.6,0.2-1.4,0.3-2.3,0.3c-0.9,0-1.7-0.1-2.4-0.4c-0.7-0.3-1.3-0.7-1.8-1.2c-0.5-0.5-0.9-1.2-1.2-1.9
			c-0.3-0.7-0.4-1.5-0.4-2.4c0-0.8,0.1-1.6,0.4-2.4C32.1,198.2,32.5,197.6,33,197.1z M34.8,219.7l-8,18.4h4.5l1.5-3.9H40l1.6,3.9
			h4.6l-8-18.4H34.8z M34.1,230.8l2.2-5.7l2.3,5.7H34.1z M37.7,272.9H41v3c-0.4,0.2-0.9,0.4-1.5,0.6c-0.6,0.2-1.4,0.3-2.3,0.3
			c-0.9,0-1.7-0.1-2.4-0.4c-0.7-0.3-1.3-0.7-1.8-1.2c-0.5-0.5-0.9-1.2-1.2-1.9c-0.3-0.7-0.4-1.5-0.4-2.4c0-0.8,0.1-1.6,0.4-2.4
			c0.3-0.7,0.7-1.4,1.2-1.9c0.5-0.5,1.1-0.9,1.8-1.2c0.7-0.3,1.5-0.4,2.4-0.4c1,0,1.9,0.1,2.6,0.4c0.7,0.3,1.3,0.7,1.9,1.3l2.9-3.1
			c-0.9-0.9-2-1.5-3.3-1.8c-1.2-0.4-2.6-0.5-4.1-0.5c-1.4,0-2.8,0.2-4,0.7c-1.2,0.5-2.3,1.1-3.1,1.9c-0.9,0.8-1.6,1.9-2.1,3.1
			s-0.7,2.5-0.7,4c0,1.5,0.2,2.8,0.7,4s1.2,2.2,2.1,3.1c0.9,0.8,1.9,1.5,3.1,1.9c1.2,0.5,2.5,0.7,4,0.7c1.4,0,2.7-0.1,4-0.4
			c1.3-0.3,2.5-0.7,3.7-1.4v-9.6h-7.2V272.9z M34.5,289.3v18.4h4.1v-18.4H34.5z M30.8,335.2h4.1v-7.2h7.7v-3.7h-7.7v-3.7h8.3v-3.7
			H30.8V335.2z"/>
	</g>
</g>
</svg>
